# xmcd
#
# Track frame offsets: 
#        150
#        14862
#        29830
#        43447
#        56810
#        70660
#        84510
#        98007
#        111590
#        123717
#        137927
#        151612
#        165820
#        179390
#        192405
#        205302
#        218767
#        232597
#        245877
#        261072
#        275327
#        289940
#        304667
#
# Disc length: 4249 seconds
#
# Revision: 0
# Processed by: cddbd v1.5.2PL0 Copyright (c) Steve Scherf et al.
# Submitted via: ExactAudioCopy v0.99pb4
#
DISCID=5b109717
DTITLE=Jim Jackson - Vol. 1 - 1927 - 1928
DYEAR=1900
DGENRE=Blues
TTITLE0=Jim Jackson's Kansas City Blues - (with Pt. 1)
TTITLE1=Jim Jackson's Kansas City Blues - (with Pt. 2)
TTITLE2=He's in the Jailhouse Now
TTITLE3=Old Dog Blue
TTITLE4=My Monday Blues
TTITLE5=Mobile-Central Blues
TTITLE6=Jim Jackson's Kansas City Blues - (with Pt. 3)
TTITLE7=Jim Jackson's Kansas City Blues - (with Pt. 4)
TTITLE8=My Monday Blues
TTITLE9=I'm a Bad Bad Man
TTITLE10=I'm Gonna Start Me a Graveyard of My Own
TTITLE11=My Monday Woman Blues - (take 1)
TTITLE12=I Heard the Voice of a Pork Chop - (take 1)
TTITLE13=I Heard the Voice of a Pork Chop - (take 2)
TTITLE14=My Monday Woman Blues - (take 3)
TTITLE15=My Mobile Central Blues
TTITLE16=Old Dog Blue
TTITLE17=Bootlegging Blues
TTITLE18=Policy Blues - (take 1)
TTITLE19=Policy Blues - (take 2)
TTITLE20=I'm Wild About My Lovin' - (take 2)
TTITLE21=This Morning She Was Gone - (take 1)
TTITLE22=This Morning She Was Gone - (take 2)
EXTD=
EXTT0=
EXTT1=
EXTT2=
EXTT3=
EXTT4=
EXTT5=
EXTT6=
EXTT7=
EXTT8=
EXTT9=
EXTT10=
EXTT11=
EXTT12=
EXTT13=
EXTT14=
EXTT15=
EXTT16=
EXTT17=
EXTT18=
EXTT19=
EXTT20=
EXTT21=
EXTT22=
PLAYORDER=
